<svg width="30" height="30" viewBox="0 0 30 30" fill="none" xmlns="http://www.w3.org/2000/svg">
<path fill-rule="evenodd" clip-rule="evenodd" d="M15.2737 21.2887C15.1864 21.2017 15.1171 21.0982 15.0699 20.9843C15.0226 20.8704 14.9983 20.7483 14.9983 20.625C14.9983 20.5017 15.0226 20.3796 15.0699 20.2657C15.1171 20.1518 15.1864 20.0483 15.2737 19.9612L20.2368 15L15.2737 10.0387C15.0977 9.86271 14.9988 9.62395 14.9988 9.37499C14.9988 9.12604 15.0977 8.88728 15.2737 8.71124C15.4498 8.53521 15.6885 8.43631 15.9375 8.43631C16.1864 8.43631 16.4252 8.53521 16.6012 8.71124L22.2262 14.3362C22.3135 14.4233 22.3828 14.5268 22.4301 14.6407C22.4773 14.7546 22.5016 14.8767 22.5016 15C22.5016 15.1233 22.4773 15.2454 22.4301 15.3593C22.3828 15.4732 22.3135 15.5767 22.2262 15.6637L16.6012 21.2887C16.5141 21.3761 16.4107 21.4453 16.2968 21.4926C16.1829 21.5398 16.0608 21.5642 15.9375 21.5642C15.8142 21.5642 15.6921 21.5398 15.5782 21.4926C15.4643 21.4453 15.3608 21.3761 15.2737 21.2887Z" fill="white"/>
<path fill-rule="evenodd" clip-rule="evenodd" d="M1.875 15C1.875 14.7514 1.97377 14.5129 2.14959 14.3371C2.3254 14.1613 2.56386 14.0625 2.8125 14.0625H19.6875C19.9361 14.0625 20.1746 14.1613 20.3504 14.3371C20.5262 14.5129 20.625 14.7514 20.625 15C20.625 15.2486 20.5262 15.4871 20.3504 15.6629C20.1746 15.8387 19.9361 15.9375 19.6875 15.9375H2.8125C2.56386 15.9375 2.3254 15.8387 2.14959 15.6629C1.97377 15.4871 1.875 15.2486 1.875 15Z" fill="white"/>
<path fill-rule="evenodd" clip-rule="evenodd" d="M25.3125 27.1875C26.0584 27.1875 26.7738 26.8912 27.3012 26.3637C27.8287 25.8363 28.125 25.1209 28.125 24.375V5.625C28.125 4.87908 27.8287 4.16371 27.3012 3.63626C26.7738 3.10882 26.0584 2.8125 25.3125 2.8125H10.3125C9.56658 2.8125 8.85121 3.10882 8.32376 3.63626C7.79632 4.16371 7.5 4.87908 7.5 5.625V8.4375C7.5 8.68614 7.59877 8.9246 7.77459 9.10041C7.9504 9.27623 8.18886 9.375 8.4375 9.375C8.68614 9.375 8.9246 9.27623 9.10041 9.10041C9.27623 8.9246 9.375 8.68614 9.375 8.4375V5.625C9.375 5.37636 9.47377 5.1379 9.64959 4.96209C9.8254 4.78627 10.0639 4.6875 10.3125 4.6875H25.3125C25.5611 4.6875 25.7996 4.78627 25.9754 4.96209C26.1512 5.1379 26.25 5.37636 26.25 5.625V24.375C26.25 24.6236 26.1512 24.8621 25.9754 25.0379C25.7996 25.2137 25.5611 25.3125 25.3125 25.3125H10.3125C10.0639 25.3125 9.8254 25.2137 9.64959 25.0379C9.47377 24.8621 9.375 24.6236 9.375 24.375V21.5625C9.375 21.3139 9.27623 21.0754 9.10041 20.8996C8.9246 20.7238 8.68614 20.625 8.4375 20.625C8.18886 20.625 7.9504 20.7238 7.77459 20.8996C7.59877 21.0754 7.5 21.3139 7.5 21.5625V24.375C7.5 25.1209 7.79632 25.8363 8.32376 26.3637C8.85121 26.8912 9.56658 27.1875 10.3125 27.1875H25.3125Z" fill="white"/>
</svg>
