<svg width="21" height="21" viewBox="0 0 21 21" fill="none" xmlns="http://www.w3.org/2000/svg">
<path fill-rule="evenodd" clip-rule="evenodd" d="M18.1835 4.78533C18.2446 4.84629 18.2931 4.91871 18.3262 4.99843C18.3592 5.07816 18.3763 5.16363 18.3763 5.24995C18.3763 5.33627 18.3592 5.42174 18.3262 5.50147C18.2931 5.5812 18.2446 5.65362 18.1835 5.71458L8.99597 14.9021C8.93501 14.9632 8.86259 15.0117 8.78287 15.0448C8.70314 15.0778 8.61767 15.0949 8.53135 15.0949C8.44503 15.0949 8.35956 15.0778 8.27983 15.0448C8.2001 15.0117 8.12768 14.9632 8.06672 14.9021L3.47297 10.3083C3.34975 10.1851 3.28052 10.018 3.28052 9.8437C3.28052 9.66943 3.34975 9.5023 3.47297 9.37908C3.5962 9.25585 3.76333 9.18662 3.9376 9.18662C4.11186 9.18662 4.279 9.25585 4.40222 9.37908L8.53135 13.5095L17.2542 4.78533C17.3152 4.72421 17.3876 4.67573 17.4673 4.64264C17.5471 4.60956 17.6325 4.59253 17.7188 4.59253C17.8052 4.59253 17.8906 4.60956 17.9704 4.64264C18.0501 4.67573 18.1225 4.72421 18.1835 4.78533Z" fill="white"/>
</svg>
