<svg width="24" height="25" viewBox="0 0 24 25" fill="none" xmlns="http://www.w3.org/2000/svg">
<path fill-rule="evenodd" clip-rule="evenodd" d="M0.75 12.5C0.948912 12.5 1.13968 12.579 1.28033 12.7197C1.42098 12.8603 1.5 13.0511 1.5 13.25V18.5C1.5 18.8978 1.65804 19.2794 1.93934 19.5607C2.22064 19.842 2.60218 20 3 20H21C21.3978 20 21.7794 19.842 22.0607 19.5607C22.342 19.2794 22.5 18.8978 22.5 18.5V13.25C22.5 13.0511 22.579 12.8603 22.7197 12.7197C22.8603 12.579 23.0511 12.5 23.25 12.5C23.4489 12.5 23.6397 12.579 23.7803 12.7197C23.921 12.8603 24 13.0511 24 13.25V18.5C24 19.2956 23.6839 20.0587 23.1213 20.6213C22.5587 21.1839 21.7956 21.5 21 21.5H3C2.20435 21.5 1.44129 21.1839 0.87868 20.6213C0.316071 20.0587 0 19.2956 0 18.5V13.25C0 13.0511 0.0790176 12.8603 0.21967 12.7197C0.360322 12.579 0.551088 12.5 0.75 12.5Z" fill="white"/>
<path fill-rule="evenodd" clip-rule="evenodd" d="M7.50084 11.75C7.64149 11.6094 7.83222 11.5304 8.03109 11.5304C8.22996 11.5304 8.42069 11.6094 8.56134 11.75L12.0008 15.1895L15.4403 11.75C15.5095 11.6783 15.5923 11.6212 15.6838 11.5819C15.7753 11.5426 15.8737 11.5219 15.9733 11.521C16.0729 11.5202 16.1716 11.5391 16.2638 11.5768C16.356 11.6146 16.4397 11.6702 16.5101 11.7407C16.5806 11.8111 16.6362 11.8948 16.674 11.987C16.7117 12.0792 16.7306 12.1779 16.7298 12.2775C16.7289 12.3771 16.7082 12.4755 16.6689 12.567C16.6296 12.6585 16.5725 12.7413 16.5008 12.8105L12.5318 16.781C12.4622 16.8508 12.3794 16.9062 12.2883 16.944C12.1972 16.9818 12.0995 17.0013 12.0008 17.0013C11.9022 17.0013 11.8045 16.9818 11.7134 16.944C11.6223 16.9062 11.5395 16.8508 11.4698 16.781L7.50084 12.8105C7.36024 12.6698 7.28125 12.4791 7.28125 12.2802C7.28125 12.0813 7.36024 11.8906 7.50084 11.75Z" fill="white"/>
<path fill-rule="evenodd" clip-rule="evenodd" d="M12 2C12.1989 2 12.3897 2.07902 12.5303 2.21967C12.671 2.36032 12.75 2.55109 12.75 2.75V14.75C12.75 14.9489 12.671 15.1397 12.5303 15.2803C12.3897 15.421 12.1989 15.5 12 15.5C11.8011 15.5 11.6103 15.421 11.4697 15.2803C11.329 15.1397 11.25 14.9489 11.25 14.75V2.75C11.25 2.55109 11.329 2.36032 11.4697 2.21967C11.6103 2.07902 11.8011 2 12 2Z" fill="white"/>
</svg>
