<svg width="21" height="21" viewBox="0 0 21 21" fill="none" xmlns="http://www.w3.org/2000/svg">
<path fill-rule="evenodd" clip-rule="evenodd" d="M14.822 1.69703C15.0681 1.45097 15.4019 1.31274 15.7499 1.31274C16.0979 1.31274 16.4317 1.45097 16.6778 1.69703L19.3028 4.32203C19.5489 4.56816 19.6871 4.90194 19.6871 5.24996C19.6871 5.59799 19.5489 5.93177 19.3028 6.1779L7.49034 17.9904C7.34665 18.1345 7.17141 18.2433 6.97847 18.308L3.04097 19.6205C2.80964 19.698 2.56129 19.7094 2.32382 19.6536C2.08634 19.5977 1.86913 19.4768 1.69656 19.3044C1.52399 19.1319 1.40289 18.9148 1.34686 18.6774C1.29082 18.44 1.30207 18.1916 1.37934 17.9602L2.69184 14.0227C2.75642 13.8293 2.86517 13.6536 3.00947 13.5095L14.822 1.69703ZM15.7499 2.62496L18.3749 5.24996L6.56241 17.0625L2.62491 18.375L3.93741 14.4375L15.7499 2.62496Z" fill="white"/>
<path fill-rule="evenodd" clip-rule="evenodd" d="M15.9416 8.33965L12.6604 5.0584L13.5896 4.12915L16.8709 7.4104L15.9429 8.33965H15.9416ZM3.9375 13.125V13.7813C3.9375 13.9553 4.00664 14.1222 4.12971 14.2453C4.25278 14.3684 4.4197 14.4375 4.59375 14.4375H5.25V15.0938C5.25 15.2678 5.31914 15.4347 5.44221 15.5578C5.56528 15.6809 5.7322 15.75 5.90625 15.75H6.5625V16.4063C6.5625 16.5803 6.63164 16.7472 6.75471 16.8703C6.87778 16.9934 7.0447 17.0625 7.21875 17.0625H7.875V15.0938C7.875 14.9197 7.80586 14.7528 7.68279 14.6297C7.55972 14.5067 7.3928 14.4375 7.21875 14.4375H6.5625V13.7813C6.5625 13.6072 6.49336 13.4403 6.37029 13.3172C6.24722 13.1942 6.0803 13.125 5.90625 13.125H3.9375Z" fill="white"/>
</svg>
