<svg width="24" height="24" viewBox="0 0 24 24" fill="none" xmlns="http://www.w3.org/2000/svg">
<path d="M7.33071 9.29994L5.88471 9.05244C5.37346 8.96599 4.84984 8.9865 4.34692 9.11268C3.844 9.23886 3.37271 9.46796 2.96282 9.78552C2.55294 10.1031 2.21336 10.5022 1.96554 10.9576C1.71772 11.4131 1.56704 11.915 1.52302 12.4316C1.47901 12.9482 1.54261 13.4684 1.70981 13.9592C1.87702 14.45 2.14419 14.9008 2.49445 15.2831C2.84471 15.6655 3.27045 15.971 3.74477 16.1804C4.2191 16.3899 4.73171 16.4987 5.25021 16.4999H9.00021V17.9999H5.25021C4.52341 17.9998 3.80454 17.8488 3.13913 17.5565C2.47372 17.2641 1.87626 16.8367 1.38459 16.3015C0.892912 15.7662 0.517733 15.1347 0.282804 14.4469C0.0478744 13.7591 -0.0416861 13.0301 0.0197929 12.3058C0.0812719 11.5816 0.292451 10.8781 0.639959 10.2398C0.987466 9.60141 1.46373 9.04217 2.0386 8.59745C2.61347 8.15273 3.27441 7.83222 3.97958 7.65621C4.68475 7.4802 5.41879 7.45252 6.13521 7.57494C6.31291 6.59276 6.68479 5.65591 7.22908 4.81926C7.77336 3.9826 8.47911 3.26295 9.30499 2.70244C10.1309 2.14194 11.0603 1.75186 12.0388 1.55504C13.0173 1.35822 14.0253 1.35861 15.0037 1.5562C15.982 1.75379 16.9111 2.1446 17.7366 2.70575C18.562 3.2669 19.2672 3.9871 19.8108 4.82419C20.3545 5.66127 20.7256 6.59841 20.9025 7.58072C21.0795 8.56304 21.0586 9.57078 20.8412 10.5449C21.7716 10.6952 22.6113 11.1901 23.1934 11.9312C23.7755 12.6724 24.0573 13.6055 23.9828 14.5449C23.9083 15.4844 23.483 16.3614 22.7914 17.0016C22.0998 17.6417 21.1926 17.9981 20.2502 17.9999H15.0002V16.4999H20.2502C20.8158 16.4996 21.3606 16.2862 21.7759 15.9023C22.1913 15.5184 22.4468 14.9921 22.4917 14.4283C22.5365 13.8644 22.3673 13.3044 22.0178 12.8597C21.6683 12.415 21.1642 12.1182 20.6057 12.0284L19.0502 11.7809L19.3742 10.2389C19.5305 9.46647 19.5331 8.67078 19.3819 7.89729C19.2307 7.12381 18.9287 6.38768 18.493 5.73094C18.0573 5.0742 17.4965 4.5097 16.8427 4.06968C16.1888 3.62967 15.4547 3.32274 14.6822 3.16644C13.9097 3.01013 13.1141 3.0075 12.3406 3.15871C11.5671 3.30991 10.831 3.61198 10.1742 4.04767C9.51748 4.48337 8.95298 5.04415 8.51296 5.698C8.07294 6.35185 7.76602 7.08597 7.60971 7.85844L7.33221 9.29844L7.33071 9.29994Z" fill="white"/>
<path fill-rule="evenodd" clip-rule="evenodd" d="M7.49964 13.2811C7.64028 13.4217 7.83101 13.5007 8.02989 13.5007C8.22876 13.5007 8.41949 13.4217 8.56014 13.2811L11.9996 9.84013L15.4391 13.2796C15.5083 13.3513 15.5911 13.4084 15.6826 13.4477C15.7741 13.487 15.8725 13.5077 15.9721 13.5086C16.0717 13.5094 16.1704 13.4905 16.2626 13.4527C16.3548 13.415 16.4385 13.3593 16.5089 13.2889C16.5794 13.2185 16.635 13.1348 16.6728 13.0426C16.7105 12.9504 16.7294 12.8517 16.7286 12.7521C16.7277 12.6525 16.707 12.5541 16.6677 12.4626C16.6284 12.3711 16.5713 12.2883 16.4996 12.2191L12.5306 8.25013C12.461 8.18028 12.3782 8.12487 12.2871 8.08706C12.196 8.04925 12.0983 8.02979 11.9996 8.02979C11.901 8.02979 11.8033 8.04925 11.7122 8.08706C11.6211 8.12487 11.5383 8.18028 11.4686 8.25013L7.49964 12.2191C7.42979 12.2888 7.37438 12.3716 7.33657 12.4627C7.29876 12.5538 7.2793 12.6515 7.2793 12.7501C7.2793 12.8488 7.29876 12.9465 7.33657 13.0376C7.37438 13.1287 7.42979 13.2115 7.49964 13.2811Z" fill="white"/>
<path fill-rule="evenodd" clip-rule="evenodd" d="M12 9C12.1989 9 12.3897 9.07902 12.5303 9.21967C12.671 9.36032 12.75 9.55109 12.75 9.75V21.75C12.75 21.9489 12.671 22.1397 12.5303 22.2803C12.3897 22.421 12.1989 22.5 12 22.5C11.8011 22.5 11.6103 22.421 11.4697 22.2803C11.329 22.1397 11.25 21.9489 11.25 21.75V9.75C11.25 9.55109 11.329 9.36032 11.4697 9.21967C11.6103 9.07902 11.8011 9 12 9Z" fill="white"/>
</svg>
