<svg width="21" height="21" viewBox="0 0 21 21" fill="none" xmlns="http://www.w3.org/2000/svg">
<path fill-rule="evenodd" clip-rule="evenodd" d="M15.5585 5.44158C15.6196 5.50254 15.6681 5.57496 15.7012 5.65468C15.7342 5.73441 15.7513 5.81988 15.7513 5.9062C15.7513 5.99252 15.7342 6.07799 15.7012 6.15772C15.6681 6.23745 15.6196 6.30987 15.5585 6.37083L6.37097 15.5583C6.24775 15.6816 6.08061 15.7508 5.90635 15.7508C5.73208 15.7508 5.56495 15.6816 5.44172 15.5583C5.3185 15.4351 5.24927 15.268 5.24927 15.0937C5.24927 14.9194 5.3185 14.7523 5.44172 14.6291L14.6292 5.44158C14.6902 5.38046 14.7626 5.33198 14.8423 5.29889C14.9221 5.26581 15.0075 5.24878 15.0938 5.24878C15.1802 5.24878 15.2656 5.26581 15.3454 5.29889C15.4251 5.33198 15.4975 5.38046 15.5585 5.44158Z" fill="white"/>
<path fill-rule="evenodd" clip-rule="evenodd" d="M5.44158 5.44158C5.38046 5.50254 5.33198 5.57496 5.29889 5.65468C5.26581 5.73441 5.24878 5.81988 5.24878 5.9062C5.24878 5.99252 5.26581 6.07799 5.29889 6.15772C5.33198 6.23745 5.38046 6.30987 5.44158 6.37083L14.6291 15.5583C14.7523 15.6816 14.9194 15.7508 15.0937 15.7508C15.268 15.7508 15.4351 15.6816 15.5583 15.5583C15.6816 15.4351 15.7508 15.268 15.7508 15.0937C15.7508 14.9194 15.6816 14.7523 15.5583 14.6291L6.37083 5.44158C6.30987 5.38046 6.23745 5.33198 6.15772 5.29889C6.07799 5.26581 5.99252 5.24878 5.9062 5.24878C5.81988 5.24878 5.73441 5.26581 5.65468 5.29889C5.57496 5.33198 5.50254 5.38046 5.44158 5.44158Z" fill="white"/>
</svg>
